<svg xmlns="http://www.w3.org/2000/svg" width="1024" height="1024" viewBox="0 0 1024 1024"><metadata><rdf:RDF xmlns:rdf="http://www.w3.org/1999/02/22-rdf-syntax-ns#" xmlns:dc="http://purl.org/dc/elements/1.1/"><rdf:Description><dc:creator>RealFaviconGenerator</dc:creator><dc:source>https://realfavicongenerator.net</dc:source></rdf:Description></rdf:RDF></metadata><path id="Rounded-Rectangle" fill="#12152a" fill-rule="evenodd" stroke="none" d="M 0 768 C 0 909.384888 114.615105 1024 256 1024 L 768 1024 C 909.384888 1024 1024 909.384888 1024 768 L 1024 256 C 1024 114.615112 909.384888 0 768 0 L 256 0 C 114.615105 0 0 114.615112 0 256 Z"></path><linearGradient id="linearGradient1" x1="109.064639" y1="476" x2="908.935361" y2="476" gradientUnits="userSpaceOnUse">
        <stop offset="0" stop-color="#ee5bb7" stop-opacity="1"></stop>
        <stop offset="0.496795" stop-color="#8b5cf6" stop-opacity="1"></stop>
        <stop offset="1" stop-color="#3fc4dc" stop-opacity="1"></stop>
    </linearGradient><filter id="filter1" x="0" y="0" width="1024" height="1024" filterUnits="userSpaceOnUse" primitiveUnits="userSpaceOnUse" color-interpolation-filters="sRGB">
        <feGaussianBlur stdDeviation="8"></feGaussianBlur>
        <feOffset dx="-0" dy="5" result="offsetblur"></feOffset>
        <feFlood flood-color="#000000" flood-opacity="0.5"></feFlood>
        <feComposite in2="offsetblur" operator="in"></feComposite>
        <feMerge>
            <feMergeNode></feMergeNode>
            <feMergeNode in="SourceGraphic"></feMergeNode>
        </feMerge>
    </filter><path id="path1" fill="url(#linearGradient1)" fill-rule="evenodd" stroke="none" filter="url(#filter1)" d="M 109.064636 621.247192 C 109.064636 630.08374 116.228081 637.247192 125.064636 637.247192 L 203.391632 637.247192 C 212.228195 637.247192 219.391632 630.08374 219.391632 621.247192 L 219.391632 568.380249 C 219.391632 559.543701 212.228195 552.380249 203.391632 552.380249 L 125.064636 552.380249 C 116.228081 552.380249 109.064636 559.543701 109.064636 568.380249 Z M 109.064636 502.433472 C 109.064636 511.27002 116.228081 518.433472 125.064636 518.433472 L 253.250946 518.433472 C 262.087524 518.433472 269.250946 511.27002 269.250946 502.433472 L 269.250946 449.566528 C 269.250946 440.72998 262.087524 433.566528 253.250946 433.566528 L 125.064636 433.566528 C 116.228081 433.566528 109.064636 440.72998 109.064636 449.566528 Z M 284.102661 438.783264 C 284.102661 447.619812 291.266113 454.783264 300.102661 454.783264 L 324.326996 454.783264 C 333.163544 454.783264 340.326996 447.619812 340.326996 438.783264 L 340.326996 428.349792 C 340.326996 419.513245 333.163544 412.349792 324.326996 412.349792 L 300.102661 412.349792 C 291.266113 412.349792 284.102661 419.513245 284.102661 428.349792 Z M 520.669189 523.650146 C 520.669189 532.486755 527.832642 539.650146 536.669189 539.650146 L 560.893555 539.650146 C 569.730103 539.650146 576.893555 532.486755 576.893555 523.650146 L 576.893555 513.216736 C 576.893555 504.380188 569.730103 497.216736 560.893555 497.216736 L 536.669189 497.216736 C 527.832642 497.216736 520.669189 504.380188 520.669189 513.216736 Z M 726.471497 557.596924 C 726.471497 566.433472 733.634949 573.596924 742.471497 573.596924 L 766.695801 573.596924 C 775.532349 573.596924 782.695801 566.433472 782.695801 557.596924 L 782.695801 547.163513 C 782.695801 538.326904 775.532349 531.163513 766.695801 531.163513 L 742.471497 531.163513 C 733.634949 531.163513 726.471497 538.326904 726.471497 547.163513 Z M 126.038025 405.897339 C 126.038025 414.733887 133.201462 421.897339 142.038025 421.897339 L 166.26236 421.897339 C 175.098907 421.897339 182.26236 414.733887 182.26236 405.897339 L 182.26236 395.463867 C 182.26236 386.627319 175.098907 379.463867 166.26236 379.463867 L 142.038025 379.463867 C 133.201462 379.463867 126.038025 386.627319 126.038025 395.463867 Z M 153.619766 321.030396 C 153.619766 329.867004 160.783218 337.030396 169.619766 337.030396 L 193.844101 337.030396 C 202.680664 337.030396 209.844101 329.867004 209.844101 321.030396 L 209.844101 310.596985 C 209.844101 301.760376 202.680664 294.596985 193.844101 294.596985 L 169.619766 294.596985 C 160.783218 294.596985 153.619766 301.760376 153.619766 310.596985 Z M 693.585571 405.897339 C 693.585571 414.733887 700.749023 421.897339 709.585571 421.897339 L 782.608337 421.897339 C 791.444946 421.897339 798.608337 414.733887 798.608337 405.897339 L 798.608337 395.463867 C 798.608337 386.627319 791.444946 379.463867 782.608337 379.463867 L 709.585571 379.463867 C 700.749023 379.463867 693.585571 386.627319 693.585571 395.463867 Z M 219.391632 384.680603 C 219.391632 393.517151 226.555084 400.680603 235.391632 400.680603 L 422.984802 400.680603 C 431.82135 400.680603 438.984802 393.517151 438.984802 384.680603 L 438.984802 331.81366 C 438.984802 322.977112 431.82135 315.81366 422.984802 315.81366 L 235.391632 315.81366 C 226.555084 315.81366 219.391632 322.977112 219.391632 331.81366 Z M 198.174911 265.866943 C 198.174911 274.703491 205.338348 281.866943 214.174911 281.866943 L 324.326996 281.866943 C 333.163544 281.866943 340.326996 274.703491 340.326996 265.866943 L 340.326996 213 C 340.326996 204.163452 333.163544 197 324.326996 197 L 214.174911 197 C 205.338348 197 198.174911 204.163452 198.174911 213 Z M 354.117859 502.433472 C 354.117859 511.27002 361.281311 518.433472 370.117859 518.433472 L 493 518.433472 C 501.836548 518.433472 509 511.27002 509 502.433472 L 509 449.566528 C 509 440.72998 501.836548 433.566528 493 433.566528 L 370.117859 433.566528 C 361.281311 433.566528 354.117859 440.72998 354.117859 449.566528 Z M 626.752869 502.433472 C 626.752869 511.27002 633.916321 518.433472 642.752869 518.433472 L 837.771851 518.433472 C 846.608398 518.433472 853.771851 511.27002 853.771851 502.433472 L 853.771851 449.566528 C 853.771851 440.72998 846.608398 433.566528 837.771851 433.566528 L 642.752869 433.566528 C 633.916321 433.566528 626.752869 440.72998 626.752869 449.566528 Z M 131.342209 739 C 131.342209 747.836548 138.505646 755 147.342209 755 L 181.114075 755 C 189.950623 755 197.114075 747.836548 197.114075 739 L 197.114075 686.133057 C 197.114075 677.296509 189.950623 670.133057 181.114075 670.133057 L 147.342209 670.133057 C 138.505646 670.133057 131.342209 677.296509 131.342209 686.133057 Z M 504.756653 739 C 504.756653 747.836548 511.920105 755 520.756653 755 L 610.752869 755 C 619.589417 755 626.752869 747.836548 626.752869 739 L 626.752869 686.133057 C 626.752869 677.296509 619.589417 670.133057 610.752869 670.133057 L 520.756653 670.133057 C 511.920105 670.133057 504.756653 677.296509 504.756653 686.133057 Z M 842.102661 739 C 842.102661 747.836548 849.266113 755 858.102661 755 L 892.935364 755 C 901.771912 755 908.935364 747.836548 908.935364 739 L 908.935364 686.133057 C 908.935364 677.296509 901.771912 670.133057 892.935364 670.133057 L 858.102661 670.133057 C 849.266113 670.133057 842.102661 677.296509 842.102661 686.133057 Z M 412.463867 621.247192 C 412.463867 630.08374 419.627319 637.247192 428.463867 637.247192 L 566.197693 637.247192 C 575.034241 637.247192 582.197693 630.08374 582.197693 621.247192 L 582.197693 568.380249 C 582.197693 559.543701 575.034241 552.380249 566.197693 552.380249 L 428.463867 552.380249 C 419.627319 552.380249 412.463867 559.543701 412.463867 568.380249 Z M 605.536133 621.247192 C 605.536133 630.08374 612.699585 637.247192 621.536133 637.247192 L 696.680603 637.247192 C 705.517151 637.247192 712.680603 630.08374 712.680603 621.247192 L 712.680603 568.380249 C 712.680603 559.543701 705.517151 552.380249 696.680603 552.380249 L 621.536133 552.380249 C 612.699585 552.380249 605.536133 559.543701 605.536133 568.380249 Z M 798.608337 621.247192 C 798.608337 630.08374 805.77179 637.247192 814.608337 637.247192 L 892.935364 637.247192 C 901.771912 637.247192 908.935364 630.08374 908.935364 621.247192 L 908.935364 568.380249 C 908.935364 559.543701 901.771912 552.380249 892.935364 552.380249 L 814.608337 552.380249 C 805.77179 552.380249 798.608337 559.543701 798.608337 568.380249 Z"></path></svg>