<?xml version="1.0" encoding="UTF-8"?>
<!-- Generated by Pixelmator Pro 3.8 -->
<svg width="800" height="558" viewBox="0 0 800 558" xmlns="http://www.w3.org/2000/svg">
    <linearGradient id="linearGradient1" x1="0.064639" y1="279" x2="799.935361" y2="279" gradientUnits="userSpaceOnUse">
        <stop offset="0" stop-color="#ee5bb7" stop-opacity="1"/>
        <stop offset="0.496795" stop-color="#8b5cf6" stop-opacity="1"/>
        <stop offset="1" stop-color="#3fc4dc" stop-opacity="1"/>
    </linearGradient>
    <path id="Rounded-Rectangle" fill="url(#linearGradient1)" fill-rule="evenodd" stroke="none" d="M 0.064639 424.247131 C 0.064639 433.08371 7.228083 440.247131 16.064638 440.247131 L 94.391632 440.247131 C 103.228188 440.247131 110.391632 433.08371 110.391632 424.247131 L 110.391632 371.380249 C 110.391632 362.543671 103.228188 355.380249 94.391632 355.380249 L 16.064638 355.380249 C 7.228083 355.380249 0.064639 362.543671 0.064639 371.380249 Z M 0.064639 305.433472 C 0.064639 314.27002 7.228083 321.433472 16.064638 321.433472 L 144.250946 321.433472 C 153.087509 321.433472 160.250946 314.27002 160.250946 305.433472 L 160.250946 252.566528 C 160.250946 243.72998 153.087509 236.566528 144.250946 236.566528 L 16.064638 236.566528 C 7.228083 236.566528 0.064639 243.72998 0.064639 252.566528 Z M 175.102661 241.783264 C 175.102661 250.619812 182.266098 257.783264 191.102661 257.783264 L 215.326996 257.783264 C 224.163559 257.783264 231.326996 250.619812 231.326996 241.783264 L 231.326996 231.349823 C 231.326996 222.513245 224.163559 215.349823 215.326996 215.349823 L 191.102661 215.349823 C 182.266098 215.349823 175.102661 222.513245 175.102661 231.349823 Z M 411.669189 326.650208 C 411.669189 335.486755 418.832642 342.650208 427.669189 342.650208 L 451.893524 342.650208 C 460.730103 342.650208 467.893524 335.486755 467.893524 326.650208 L 467.893524 316.216736 C 467.893524 307.380188 460.730103 300.216736 451.893524 300.216736 L 427.669189 300.216736 C 418.832642 300.216736 411.669189 307.380188 411.669189 316.216736 Z M 617.471497 360.596954 C 617.471497 369.433533 624.634949 376.596954 633.471497 376.596954 L 657.695801 376.596954 C 666.532349 376.596954 673.695801 369.433533 673.695801 360.596954 L 673.695801 350.163513 C 673.695801 341.326965 666.532349 334.163513 657.695801 334.163513 L 633.471497 334.163513 C 624.634949 334.163513 617.471497 341.326965 617.471497 350.163513 Z M 17.038023 208.897339 C 17.038023 217.733887 24.201468 224.897339 33.038021 224.897339 L 57.262356 224.897339 C 66.098915 224.897339 73.26236 217.733887 73.26236 208.897339 L 73.26236 198.463867 C 73.26236 189.627319 66.098915 182.463867 57.262356 182.463867 L 33.038021 182.463867 C 24.201468 182.463867 17.038023 189.627319 17.038023 198.463867 Z M 44.61977 124.030426 C 44.61977 132.866974 51.783215 140.030426 60.61977 140.030426 L 84.844109 140.030426 C 93.680664 140.030426 100.844109 132.866974 100.844109 124.030426 L 100.844109 113.596954 C 100.844109 104.760406 93.680664 97.596954 84.844109 97.596954 L 60.61977 97.596954 C 51.783215 97.596954 44.61977 104.760406 44.61977 113.596954 Z M 584.585571 208.897339 C 584.585571 217.733887 591.749023 224.897339 600.585571 224.897339 L 673.608337 224.897339 C 682.444946 224.897339 689.608337 217.733887 689.608337 208.897339 L 689.608337 198.463867 C 689.608337 189.627319 682.444946 182.463867 673.608337 182.463867 L 600.585571 182.463867 C 591.749023 182.463867 584.585571 189.627319 584.585571 198.463867 Z M 110.391632 187.680603 C 110.391632 196.517151 117.555077 203.680603 126.391632 203.680603 L 313.984802 203.680603 C 322.82135 203.680603 329.984802 196.517151 329.984802 187.680603 L 329.984802 134.81369 C 329.984802 125.977142 322.82135 118.81369 313.984802 118.81369 L 126.391632 118.81369 C 117.555077 118.81369 110.391632 125.977142 110.391632 134.81369 Z M 89.174904 68.866913 C 89.174904 77.703491 96.338348 84.866913 105.174904 84.866913 L 215.326996 84.866913 C 224.163559 84.866913 231.326996 77.703491 231.326996 68.866913 L 231.326996 16 C 231.326996 7.163452 224.163559 0 215.326996 0 L 105.174904 0 C 96.338348 0 89.174904 7.163452 89.174904 16 Z M 245.117874 305.433472 C 245.117874 314.27002 252.281311 321.433472 261.117859 321.433472 L 384 321.433472 C 392.836548 321.433472 400 314.27002 400 305.433472 L 400 252.566528 C 400 243.72998 392.836548 236.566528 384 236.566528 L 261.117859 236.566528 C 252.281311 236.566528 245.117874 243.72998 245.117874 252.566528 Z M 517.752869 305.433472 C 517.752869 314.27002 524.916321 321.433472 533.752869 321.433472 L 728.771851 321.433472 C 737.608398 321.433472 744.771851 314.27002 744.771851 305.433472 L 744.771851 252.566528 C 744.771851 243.72998 737.608398 236.566528 728.771851 236.566528 L 533.752869 236.566528 C 524.916321 236.566528 517.752869 243.72998 517.752869 252.566528 Z M 22.342205 542 C 22.342205 550.836548 29.50565 558 38.342205 558 L 72.114067 558 C 80.950623 558 88.114075 550.836548 88.114075 542 L 88.114075 489.133087 C 88.114075 480.296509 80.950623 473.133087 72.114067 473.133087 L 38.342205 473.133087 C 29.50565 473.133087 22.342205 480.296509 22.342205 489.133087 Z M 395.756653 542 C 395.756653 550.836548 402.920105 558 411.756653 558 L 501.752869 558 C 510.589417 558 517.752869 550.836548 517.752869 542 L 517.752869 489.133087 C 517.752869 480.296509 510.589417 473.133087 501.752869 473.133087 L 411.756653 473.133087 C 402.920105 473.133087 395.756653 480.296509 395.756653 489.133087 Z M 733.102661 542 C 733.102661 550.836548 740.266113 558 749.102661 558 L 783.935364 558 C 792.771912 558 799.935364 550.836548 799.935364 542 L 799.935364 489.133087 C 799.935364 480.296509 792.771912 473.133087 783.935364 473.133087 L 749.102661 473.133087 C 740.266113 473.133087 733.102661 480.296509 733.102661 489.133087 Z M 303.463867 424.247131 C 303.463867 433.08371 310.627319 440.247131 319.463867 440.247131 L 457.197723 440.247131 C 466.034271 440.247131 473.197723 433.08371 473.197723 424.247131 L 473.197723 371.380249 C 473.197723 362.543671 466.034271 355.380249 457.197723 355.380249 L 319.463867 355.380249 C 310.627319 355.380249 303.463867 362.543671 303.463867 371.380249 Z M 496.536133 424.247131 C 496.536133 433.08371 503.699554 440.247131 512.536133 440.247131 L 587.680603 440.247131 C 596.517151 440.247131 603.680603 433.08371 603.680603 424.247131 L 603.680603 371.380249 C 603.680603 362.543671 596.517151 355.380249 587.680603 355.380249 L 512.536133 355.380249 C 503.699554 355.380249 496.536133 362.543671 496.536133 371.380249 Z M 689.608337 424.247131 C 689.608337 433.08371 696.77179 440.247131 705.608337 440.247131 L 783.935364 440.247131 C 792.771912 440.247131 799.935364 433.08371 799.935364 424.247131 L 799.935364 371.380249 C 799.935364 362.543671 792.771912 355.380249 783.935364 355.380249 L 705.608337 355.380249 C 696.77179 355.380249 689.608337 362.543671 689.608337 371.380249 Z"/>
</svg>
